<svg xmlns="http://www.w3.org/2000/svg" viewBox="0 0 960 720">
  <defs>
    <linearGradient id="diningBg" x1="0%" y1="0%" x2="100%" y2="100%">
      <stop offset="0%" stop-color="#0c3f6c" />
      <stop offset="100%" stop-color="#145da0" />
    </linearGradient>
    <radialGradient id="plateHighlight" cx="50%" cy="35%" r="60%">
      <stop offset="0%" stop-color="#ffffff" stop-opacity="0.95" />
      <stop offset="100%" stop-color="#d7e0ea" stop-opacity="0.4" />
    </radialGradient>
    <linearGradient id="clocheGradient" x1="0%" y1="0%" x2="0%" y2="100%">
      <stop offset="0%" stop-color="#f7f9fb" />
      <stop offset="100%" stop-color="#c8d4e0" />
    </linearGradient>
    <linearGradient id="steamGradient" x1="0%" y1="0%" x2="0%" y2="100%">
      <stop offset="0%" stop-color="#ffffff" stop-opacity="0.85" />
      <stop offset="100%" stop-color="#ffffff" stop-opacity="0" />
    </linearGradient>
  </defs>
  <rect width="960" height="720" fill="url(#diningBg)" />
  <g opacity="0.45">
    <circle cx="760" cy="120" r="120" fill="#f7b733" />
    <circle cx="820" cy="620" r="200" fill="#f48924" />
    <circle cx="120" cy="520" r="160" fill="#0b385f" />
  </g>
  <g transform="translate(160 120)">
    <ellipse cx="320" cy="440" rx="320" ry="80" fill="#072c4a" opacity="0.35" />
    <ellipse cx="320" cy="380" rx="300" ry="90" fill="url(#plateHighlight)" />
    <ellipse cx="320" cy="380" rx="220" ry="60" fill="#ffffff" opacity="0.75" />
    <path
      d="M160 260h320c14 0 26 10 28 24l16 120H116l16-120c2-14 14-24 28-24z"
      fill="#e7edf4"
      opacity="0.75"
    />
    <path
      d="M178 260c0-110 94-174 182-174s182 64 182 174H178z"
      fill="url(#clocheGradient)"
    />
    <path
      d="M338 86c-14 26 34 40 12 74 22-6 36-44 6-74-6-6-16-6-18 0z"
      fill="#ffffff"
      opacity="0.85"
    />
    <path
      d="M386 86c-14 26 34 40 12 74 22-6 36-44 6-74-6-6-16-6-18 0z"
      fill="#ffffff"
      opacity="0.65"
    />
    <path
      d="M288 88c-14 26 34 40 12 74 22-6 36-44 6-74-6-6-16-6-18 0z"
      fill="#ffffff"
      opacity="0.55"
    />
    <circle cx="360" cy="90" r="16" fill="#d7e0ea" />
    <path
      d="M120 404h400l-8 60H128z"
      fill="#b6c3d4"
      opacity="0.45"
    />
  </g>
  <g fill="#ffffff">
    <text x="120" y="120" font-family="'Inter', Arial, sans-serif" font-size="54" font-weight="700">
      In-Room Dining Showcase
    </text>
    <text x="120" y="170" font-family="'Inter', Arial, sans-serif" font-size="24" opacity="0.85">
      Signature dishes plated and delivered under 30 minutes.
    </text>
  </g>
  <g transform="translate(580 240)">
    <rect x="0" y="0" width="280" height="280" rx="28" fill="rgba(10, 40, 70, 0.4)" />
    <text
      x="140"
      y="80"
      font-family="'Inter', Arial, sans-serif"
      font-size="22"
      font-weight="600"
      fill="#ffffff"
      text-anchor="middle"
    >
      Chef’s Picks
    </text>
    <line x1="80" y1="96" x2="200" y2="96" stroke="#f7b733" stroke-width="3" stroke-linecap="round" />
    <text
      x="140"
      y="138"
      font-family="'Inter', Arial, sans-serif"
      font-size="18"
      fill="#e4ecf4"
      text-anchor="middle"
    >
      Truffle Shellfish Bisque
    </text>
    <text
      x="140"
      y="176"
      font-family="'Inter', Arial, sans-serif"
      font-size="18"
      fill="#e4ecf4"
      text-anchor="middle"
    >
      Cedar Plank Salmon
    </text>
    <text
      x="140"
      y="214"
      font-family="'Inter', Arial, sans-serif"
      font-size="18"
      fill="#e4ecf4"
      text-anchor="middle"
    >
      Harbor Herb Chicken
    </text>
  </g>
</svg>
