<svg xmlns="http://www.w3.org/2000/svg" viewBox="0 0 480 320">
  <defs>
    <linearGradient id="shareableBg" x1="0%" y1="0%" x2="100%" y2="100%">
      <stop offset="0%" stop-color="#fff4f0" />
      <stop offset="100%" stop-color="#fac5b6" />
    </linearGradient>
  </defs>
  <rect width="480" height="320" fill="url(#shareableBg)" />
  <g opacity="0.28" fill="#f6a18e">
    <circle cx="430" cy="80" r="110" />
    <circle cx="80" cy="300" r="150" />
  </g>
  <g transform="translate(68 62)">
    <ellipse cx="172" cy="192" rx="172" ry="48" fill="#d77863" opacity="0.3" />
    <ellipse cx="172" cy="142" rx="154" ry="68" fill="#fff6f1" stroke="#e2c4ba" stroke-width="8" />
    <g transform="translate(32 40)">
      <path
        d="M32 110c30-44 270-54 304-8 20 30-30 54-118 54-126 0-196-26-186-46z"
        fill="#f9c27a"
      />
      <path
        d="M96 62c26-22 90-30 128-18 46 14 44 48-4 64-68 24-170-8-124-46z"
        fill="#f9a76b"
      />
      <path
        d="M204 48c18-16 48-18 58 4-12 14-32 18-58-4z"
        fill="#f5d0ae"
      />
      <circle cx="122" cy="78" r="28" fill="#fdf0cf" />
      <circle cx="236" cy="72" r="26" fill="#fce6bf" />
    </g>
    <g fill="#cd5767">
      <circle cx="130" cy="122" r="10" />
      <circle cx="214" cy="138" r="9" />
      <circle cx="180" cy="166" r="10" />
      <circle cx="246" cy="156" r="8" />
    </g>
    <g fill="#7bbd7d">
      <path d="M110 140c16-12 32-10 36 6-10 6-22 6-36-6z" />
      <path d="M208 172c18-12 32-10 40 6-18 8-30 6-40-6z" />
      <path d="M260 128c12-12 24-12 30 2-12 6-22 6-30-2z" />
    </g>
  </g>
  <text
    x="46"
    y="60"
    font-family="'Inter', Arial, sans-serif"
    font-size="24"
    font-weight="600"
    fill="#bb4f44"
  >
    Shareable Plates
  </text>
</svg>
