<svg xmlns="http://www.w3.org/2000/svg" viewBox="0 0 480 320">
  <defs>
    <linearGradient id="mainsBg" x1="0%" y1="0%" x2="100%" y2="100%">
      <stop offset="0%" stop-color="#fff0e1" />
      <stop offset="100%" stop-color="#f5c69c" />
    </linearGradient>
  </defs>
  <rect width="480" height="320" fill="url(#mainsBg)" />
  <g opacity="0.25" fill="#f0b17a">
    <circle cx="420" cy="70" r="110" />
    <circle cx="100" cy="300" r="150" />
  </g>
  <g transform="translate(70 60)">
    <ellipse cx="170" cy="196" rx="170" ry="50" fill="#c9804b" opacity="0.35" />
    <ellipse cx="170" cy="146" rx="160" ry="72" fill="#fdf4eb" stroke="#d8c3b4" stroke-width="8" />
    <g transform="translate(32 64)">
      <path
        d="M32 72c32-32 256-34 288-4 24 20 6 42-38 46-124 12-222 6-250-18-14-12-10-24 0-24z"
        fill="#f2b15d"
      />
      <path
        d="M60 48c32-36 120-56 180-40 52 14 60 54 12 82-58 34-206 24-192-42z"
        fill="#f28e4b"
        opacity="0.9"
      />
      <path
        d="M124 60c20-28 70-32 102-16 28 18 18 46-18 54-42 10-112-6-84-38z"
        fill="#f0d6c3"
      />
      <path
        d="M196 42c20-28 54-28 66 3-10 18-32 24-66-3z"
        fill="#f6c99d"
      />
    </g>
    <g fill="#df6846">
      <circle cx="150" cy="126" r="12" />
      <circle cx="236" cy="142" r="10" />
      <circle cx="200" cy="168" r="9" />
    </g>
    <g fill="#7fb569">
      <path d="M112 138c18-18 40-18 46 2-12 10-28 12-46-2z" />
      <path d="M210 180c18-12 34-10 40 6-18 6-30 6-40-6z" />
      <path d="M258 132c12-12 28-10 34 4-12 6-24 6-34-4z" />
    </g>
  </g>
  <text
    x="44"
    y="60"
    font-family="'Inter', Arial, sans-serif"
    font-size="24"
    font-weight="600"
    fill="#a75a27"
  >
    Signature Mains
  </text>
</svg>
